<svg xmlns="http://www.w3.org/2000/svg" version="1.1" xmlns:xlink="http://www.w3.org/1999/xlink" xmlns:svgjs="http://svgjs.dev/svgjs" width="1000" height="1000"><g clip-path="url(#SvgjsClipPath1132)"><rect width="1000" height="1000" fill="#131025"></rect><g transform="matrix(15.384615384615385,0,0,15.384615384615385,200,200)"><svg xmlns="http://www.w3.org/2000/svg" version="1.1" xmlns:xlink="http://www.w3.org/1999/xlink" xmlns:svgjs="http://svgjs.dev/svgjs" width="39" height="39"><svg width="39" height="39" viewBox="0 0 39 39" fill="none" xmlns="http://www.w3.org/2000/svg">
<path d="M21.675 38.6062L18.5625 31.4062C21.5625 30.3187 24.3187 28.875 26.8687 27.15L21.6562 38.6062M7.59374 20.4375L0.393738 17.3437L11.85 12.1312C10.125 14.6812 8.68124 17.4562 7.59374 20.4375ZM34.5 4.49999C28.95 4.08749 24.75 6.05624 20.3437 10.7062C15.9187 15.3375 14.0437 19.1437 12.9375 22.0312L17.0062 25.9687C21.3 24.3375 25.125 21.8812 28.3125 18.675C34.5 12.5062 34.8187 7.12499 34.5 4.49999ZM17.625 8.06249C22.5562 2.81249 30.75 -0.975014 37.6125 1.40624C37.6125 1.40624 41.5875 10.7062 30.9562 21.375C26.8312 25.4437 22.3687 27.9375 18.3562 29.5125C17.9062 29.6812 16.2 30.2437 14.3625 28.65L10.3687 24.6562C9.31874 23.6062 8.98124 22.0687 9.48749 20.6625C11.0625 16.6875 12.7687 13.2937 17.625 8.06249ZM8.71874 38.25H6.07499L13.7437 30.5625C14.3062 30.9562 14.925 31.2375 15.5625 31.4062L8.71874 38.25ZM0.749988 38.25V35.6062L9.69374 26.6437L12.375 29.3062L3.39374 38.25H0.749988ZM0.749988 32.9437V30.2812L7.59374 23.4375C7.76249 24.0937 8.04374 24.7125 8.43749 25.2562L0.749988 32.9437ZM27 8.24999C27.9946 8.24999 28.9484 8.64507 29.6516 9.34834C30.3549 10.0516 30.75 11.0054 30.75 12C30.75 14.0812 29.0812 15.75 27 15.75C26.0054 15.75 25.0516 15.3549 24.3483 14.6516C23.6451 13.9484 23.25 12.9945 23.25 12C23.25 11.0054 23.6451 10.0516 24.3483 9.34834C25.0516 8.64507 26.0054 8.24999 27 8.24999Z" fill="#F6F6F6"></path>
</svg></svg></g></g><defs><clipPath id="SvgjsClipPath1132"><rect width="1000" height="1000" x="0" y="0" rx="250" ry="250"></rect></clipPath></defs></svg>